<svg width="24" height="24" viewBox="0 0 24 24" fill="none" xmlns="http://www.w3.org/2000/svg">
<path d="M10.6 13.799L8.45 11.649C8.26667 11.4657 8.03333 11.374 7.75 11.374C7.46667 11.374 7.23334 11.4657 7.05 11.649C6.86667 11.8324 6.775 12.0657 6.775 12.349C6.775 12.6324 6.86667 12.8657 7.05 13.049L9.9 15.899C10.1 16.099 10.3333 16.199 10.6 16.199C10.8667 16.199 11.1 16.099 11.3 15.899L16.95 10.249C17.1333 10.0657 17.225 9.83236 17.225 9.54902C17.225 9.26569 17.1333 9.03236 16.95 8.84902C16.7667 8.66569 16.5333 8.57402 16.25 8.57402C15.9667 8.57402 15.7333 8.66569 15.55 8.84902L10.6 13.799ZM12 21.999C10.6167 21.999 9.31667 21.7364 8.1 21.211C6.88334 20.6857 5.825 19.9734 4.925 19.074C4.025 18.1747 3.31267 17.1164 2.788 15.899C2.26333 14.6817 2.00067 13.3817 2 11.999C1.99933 10.6164 2.262 9.31636 2.788 8.09902C3.314 6.88169 4.02633 5.82336 4.925 4.92402C5.82367 4.02469 6.882 3.31236 8.1 2.78702C9.318 2.26169 10.618 1.99902 12 1.99902C13.382 1.99902 14.682 2.26169 15.9 2.78702C17.118 3.31236 18.1763 4.02469 19.075 4.92402C19.9737 5.82336 20.6863 6.88169 21.213 8.09902C21.7397 9.31636 22.002 10.6164 22 11.999C21.998 13.3817 21.7353 14.6817 21.212 15.899C20.6887 17.1164 19.9763 18.1747 19.075 19.074C18.1737 19.9734 17.1153 20.686 15.9 21.212C14.6847 21.738 13.3847 22.0004 12 21.999ZM12 19.999C14.2333 19.999 16.125 19.224 17.675 17.674C19.225 16.124 20 14.2324 20 11.999C20 9.76569 19.225 7.87402 17.675 6.32402C16.125 4.77402 14.2333 3.99902 12 3.99902C9.76667 3.99902 7.875 4.77402 6.325 6.32402C4.775 7.87402 4 9.76569 4 11.999C4 14.2324 4.775 16.124 6.325 17.674C7.875 19.224 9.76667 19.999 12 19.999Z" fill="#1AB266"/>
</svg>
