<svg width="24" height="24" viewBox="0 0 24 24" fill="none" xmlns="http://www.w3.org/2000/svg">
<path d="M17.1246 5.00005C17.1246 4.73483 17.0257 4.47977 16.8499 4.29223C16.6741 4.10493 16.4359 3.99926 16.1874 3.99926H6.81257C6.56392 3.99926 6.3248 4.10469 6.14898 4.29223C5.97316 4.47977 5.87431 4.73483 5.87431 5.00005V19.2761L11.0347 16.1319L11.1457 16.0745C11.4105 15.9592 11.7131 15.9782 11.9653 16.1319L17.1246 19.2761V5.00005ZM19 21C19 21.3564 18.8221 21.6859 18.5331 21.8648C18.244 22.0437 17.8872 22.0452 17.597 21.8683L11.4995 18.1511L5.40189 21.8683C5.11186 22.0449 4.75582 22.0435 4.46693 21.8648C4.17788 21.6859 4 21.3564 4 21V5.00005C4 4.20439 4.29544 3.44037 4.8229 2.87775C5.35036 2.31513 6.06663 2 6.81257 2H16.1874C16.9332 2 17.6486 2.31538 18.176 2.87775C18.7035 3.44037 19 4.20439 19 5.00005V21Z" fill="#7575F0"/>
<path d="M17.1246 5.00005C17.1246 4.73483 17.0257 4.47977 16.8499 4.29223C16.6741 4.10493 16.4359 3.99926 16.1874 3.99926H6.81257C6.56392 3.99926 6.3248 4.10469 6.14898 4.29223C5.97316 4.47977 5.87431 4.73483 5.87431 5.00005V19.2761L11.0347 16.1319L11.1457 16.0745C11.4105 15.9592 11.7131 15.9782 11.9653 16.1319L17.1246 19.2761V5.00005Z" fill="#7575F0"/>
</svg>
